<svg width="77" height="77" viewBox="0 0 77 77" fill="none" xmlns="http://www.w3.org/2000/svg">
<path d="M38.2326 0C17.1514 0 0 17.1514 0 38.2326C0 59.3139 17.1514 76.4652 38.2326 76.4652C59.3139 76.4652 76.4652 59.3139 76.4652 38.2326C76.4652 17.1514 59.3139 0 38.2326 0ZM47.0904 22.3183L51.5203 26.1893L37.99 41.6478L33.5601 37.4091L47.0904 22.3183ZM26.4559 54.1561L13.4862 41.1736L17.6458 37.0139L30.6173 49.9965L26.4559 54.1561ZM38.4036 54.3013L25.2832 41.1736L29.4446 37.0158L38.1131 45.6935L58.54 22.3183L62.9698 26.1893L38.4036 54.3013Z" fill="white" fill-opacity="0.7"/>
</svg>
