<svg width="15" height="17" viewBox="0 0 15 17" fill="none" xmlns="http://www.w3.org/2000/svg">
<path d="M13.5 7.81227V3.09091C13.5 2.68103 13.342 2.28794 13.0607 1.99811C12.7794 1.70828 12.3978 1.54545 12 1.54545H8.865C8.55 0.649091 7.725 0 6.75 0C5.775 0 4.95 0.649091 4.635 1.54545H1.5C0.675 1.54545 0 2.24091 0 3.09091V13.9091C0 14.319 0.158035 14.7121 0.43934 15.0019C0.720644 15.2917 1.10218 15.4545 1.5 15.4545H6.0825C7.0275 16.4127 8.3175 17 9.75 17C12.6525 17 15 14.5814 15 11.5909C15 10.115 14.43 8.78591 13.5 7.81227ZM6.75 1.54545C7.1625 1.54545 7.5 1.89318 7.5 2.31818C7.5 2.74318 7.1625 3.09091 6.75 3.09091C6.3375 3.09091 6 2.74318 6 2.31818C6 1.89318 6.3375 1.54545 6.75 1.54545ZM1.5 13.9091V3.09091H3V4.63636H10.5V3.09091H12V6.70727C11.0217 6.22839 9.92355 6.0732 8.85624 6.26301C7.78893 6.45282 6.8048 6.97833 6.03894 7.7674C5.27308 8.55646 4.76303 9.57041 4.5788 10.6701C4.39457 11.7697 4.5452 12.9012 5.01 13.9091H1.5ZM9.75 15.4545C7.68 15.4545 6 13.7236 6 11.5909C6 9.45818 7.68 7.72727 9.75 7.72727C11.82 7.72727 13.5 9.45818 13.5 11.5909C13.5 13.7236 11.82 15.4545 9.75 15.4545ZM10.125 11.7841L12.27 13.09L11.7075 14.0327L9 12.3636V8.5H10.125V11.7841Z" fill="#FDFDFD"/>
</svg>
