<svg width="103" height="40" viewBox="0 0 103 40" fill="none" xmlns="http://www.w3.org/2000/svg">
<path d="M20.06 27.22C19.0067 27.22 18.0267 27.04 17.12 26.68C16.2267 26.3067 15.44 25.7867 14.76 25.12C14.0933 24.4533 13.5733 23.68 13.2 22.8C12.8267 21.9067 12.64 20.9467 12.64 19.92C12.64 18.8933 12.8267 17.94 13.2 17.06C13.5733 16.1667 14.0933 15.3933 14.76 14.74C15.4267 14.0867 16.2067 13.58 17.1 13.22C18.0067 12.8467 18.9867 12.66 20.04 12.66C21.16 12.66 22.1533 12.84 23.02 13.2C23.9 13.56 24.6667 14.0533 25.32 14.68L23.22 16.8C22.8467 16.4 22.3933 16.0867 21.86 15.86C21.34 15.6333 20.7333 15.52 20.04 15.52C19.4267 15.52 18.86 15.6267 18.34 15.84C17.8333 16.04 17.3933 16.3333 17.02 16.72C16.66 17.1067 16.3733 17.5733 16.16 18.12C15.96 18.6667 15.86 19.2667 15.86 19.92C15.86 20.5867 15.96 21.1933 16.16 21.74C16.3733 22.2867 16.66 22.7533 17.02 23.14C17.3933 23.5267 17.8333 23.8267 18.34 24.04C18.86 24.2533 19.4267 24.36 20.04 24.36C20.76 24.36 21.3867 24.2467 21.92 24.02C22.4533 23.7933 22.9133 23.48 23.3 23.08L25.42 25.2C24.74 25.8267 23.96 26.32 23.08 26.68C22.2133 27.04 21.2067 27.22 20.06 27.22ZM25.7375 27L31.3375 12.88H34.1775L39.7175 27H36.3975L32.1575 15.28H33.2975L28.9975 27H25.7375ZM28.9175 24.44V21.88H36.6175V24.44H28.9175ZM45.1781 27.22C44.0181 27.22 43.0181 27.0333 42.1781 26.66C41.3515 26.2733 40.5915 25.6933 39.8981 24.92L41.9381 22.9C42.3915 23.42 42.8915 23.8267 43.4381 24.12C43.9981 24.4 44.6448 24.54 45.3781 24.54C46.0448 24.54 46.5581 24.42 46.9181 24.18C47.2915 23.94 47.4781 23.6067 47.4781 23.18C47.4781 22.7933 47.3581 22.48 47.1181 22.24C46.8781 22 46.5581 21.7933 46.1581 21.62C45.7715 21.4467 45.3381 21.28 44.8581 21.12C44.3915 20.96 43.9248 20.78 43.4581 20.58C42.9915 20.3667 42.5581 20.1067 42.1581 19.8C41.7715 19.48 41.4581 19.0867 41.2181 18.62C40.9781 18.14 40.8581 17.54 40.8581 16.82C40.8581 15.9533 41.0648 15.2067 41.4781 14.58C41.9048 13.9533 42.4915 13.48 43.2381 13.16C43.9848 12.8267 44.8448 12.66 45.8181 12.66C46.8048 12.66 47.7048 12.8333 48.5181 13.18C49.3448 13.5267 50.0248 14 50.5581 14.6L48.5181 16.62C48.0915 16.18 47.6581 15.8533 47.2181 15.64C46.7915 15.4267 46.3048 15.32 45.7581 15.32C45.2115 15.32 44.7781 15.4267 44.4581 15.64C44.1381 15.84 43.9781 16.1333 43.9781 16.52C43.9781 16.88 44.0981 17.1733 44.3381 17.4C44.5781 17.6133 44.8915 17.8 45.2781 17.96C45.6781 18.12 46.1115 18.28 46.5781 18.44C47.0581 18.6 47.5315 18.7867 47.9981 19C48.4648 19.2133 48.8915 19.4867 49.2781 19.82C49.6781 20.14 49.9981 20.5533 50.2381 21.06C50.4781 21.5533 50.5981 22.1667 50.5981 22.9C50.5981 24.2467 50.1181 25.3067 49.1581 26.08C48.1981 26.84 46.8715 27.22 45.1781 27.22ZM54.9983 21.86V19.42H58.0383C58.4249 19.42 58.7783 19.34 59.0983 19.18C59.4183 19.02 59.6716 18.7867 59.8583 18.48C60.0449 18.1733 60.1383 17.8 60.1383 17.36C60.1383 16.9333 60.0449 16.5667 59.8583 16.26C59.6716 15.9533 59.4183 15.72 59.0983 15.56C58.7783 15.4 58.4249 15.32 58.0383 15.32H54.9983V12.88H58.4983C59.3916 12.88 60.1983 13.06 60.9183 13.42C61.6383 13.78 62.2049 14.3 62.6183 14.98C63.0449 15.6467 63.2583 16.44 63.2583 17.36C63.2583 18.28 63.0449 19.08 62.6183 19.76C62.2049 20.4267 61.6383 20.9467 60.9183 21.32C60.1983 21.68 59.3916 21.86 58.4983 21.86H54.9983ZM52.5983 27V12.88H55.7383V27H52.5983ZM65.0202 27V12.88H68.1602V27H65.0202ZM67.4202 27V24.28H75.1602V27H67.4202ZM67.4202 21.1V18.48H74.4602V21.1H67.4202ZM67.4202 15.58V12.88H75.0602V15.58H67.4202ZM79.7248 21.18V18.86H82.7048C83.3315 18.86 83.8115 18.7 84.1448 18.38C84.4915 18.06 84.6648 17.6267 84.6648 17.08C84.6648 16.5733 84.4982 16.1533 84.1648 15.82C83.8315 15.4867 83.3515 15.32 82.7248 15.32H79.7248V12.88H83.0848C84.0182 12.88 84.8382 13.06 85.5448 13.42C86.2515 13.7667 86.8048 14.2533 87.2048 14.88C87.6048 15.5067 87.8048 16.2267 87.8048 17.04C87.8048 17.8667 87.6048 18.5933 87.2048 19.22C86.8048 19.8333 86.2448 20.3133 85.5248 20.66C84.8048 21.0067 83.9582 21.18 82.9848 21.18H79.7248ZM77.3248 27V12.88H80.4648V27H77.3248ZM85.0048 27L80.6048 20.92L83.4848 20.14L88.7248 27H85.0048Z" fill="white"/>
<rect x="0.5" y="0.5" width="101.703" height="39" rx="6.5" stroke="url(#paint0_linear_26_26)"/>
<defs>
<linearGradient id="paint0_linear_26_26" x1="105.238" y1="6.29622e-07" x2="-1.3795" y2="35.9035" gradientUnits="userSpaceOnUse">
<stop stop-color="#02DBF0"/>
<stop offset="0.505208" stop-color="#E41CFC"/>
<stop offset="1" stop-color="#2A00FE"/>
</linearGradient>
</defs>
</svg>
