<svg width="21" height="19" viewBox="0 0 21 19" fill="none" xmlns="http://www.w3.org/2000/svg">
<path d="M19.9996 9.5C19.9996 14.1944 16.194 18 11.4996 18C10.4228 18 9.39283 17.7998 8.44478 17.4345C8.27145 17.3678 8.18478 17.3344 8.11586 17.3185C8.04807 17.3029 7.999 17.2963 7.92949 17.2937C7.85881 17.291 7.78127 17.299 7.62619 17.315L2.50517 17.8444C2.01692 17.8948 1.7728 17.9201 1.6288 17.8322C1.50337 17.7557 1.41794 17.6279 1.3952 17.4828C1.36909 17.3161 1.48575 17.1002 1.71906 16.6684L3.35472 13.6408C3.48942 13.3915 3.55677 13.2668 3.58728 13.1469C3.6174 13.0286 3.62469 12.9432 3.61505 12.8214C3.60529 12.6981 3.55119 12.5376 3.443 12.2166C3.15547 11.3636 2.99962 10.45 2.99962 9.5C2.99962 4.80558 6.8052 1 11.4996 1C16.194 1 19.9996 4.80558 19.9996 9.5Z" stroke="#949494" stroke-width="2" stroke-linecap="round" stroke-linejoin="round"/>
</svg>
