<svg width="8" height="18" viewBox="0 0 8 18" fill="none" xmlns="http://www.w3.org/2000/svg">
<path d="M3.875 0.70223C3.48717 0.70223 3.17277 1.01663 3.17277 1.40446L3.17277 3.39661C3.17277 4.0564 2.37505 4.38683 1.9085 3.92028L1.88286 3.89464C1.6078 3.61958 1.16184 3.61958 0.886785 3.89464C0.611727 4.1697 0.611727 4.61565 0.886785 4.89071L2.13187 6.1358C3.09458 7.0985 4.65542 7.0985 5.61813 6.1358L6.86322 4.89071C7.13827 4.61566 7.13827 4.1697 6.86322 3.89464C6.58816 3.61958 6.1422 3.61958 5.86714 3.89464L5.8415 3.92028C5.37495 4.38683 4.57723 4.0564 4.57723 3.3966L4.57723 1.40446C4.57723 1.01663 4.26283 0.702231 3.875 0.70223ZM0.886785 12.8593C0.611728 13.1343 0.611727 13.5803 0.886785 13.8554C1.16184 14.1304 1.6078 14.1304 1.88286 13.8554L1.9085 13.8297C2.37505 13.3632 3.17277 13.6936 3.17277 14.3534L3.17277 16.3455C3.17277 16.7334 3.48717 17.0478 3.875 17.0478C4.26283 17.0478 4.57723 16.7334 4.57723 16.3455L4.57723 14.3534C4.57723 13.6936 5.37495 13.3632 5.8415 13.8297L5.86714 13.8554C6.1422 14.1304 6.58816 14.1304 6.86322 13.8554C7.13827 13.5803 7.13827 13.1343 6.86322 12.8593L5.61813 11.6142C4.65543 10.6515 3.09458 10.6515 2.13187 11.6142L0.886785 12.8593Z" fill="#6B6B6B"/>
</svg>
