<svg width="18" height="15" viewBox="0 0 18 15" fill="none" xmlns="http://www.w3.org/2000/svg">
<path d="M9.8964 1.91013L9.24503 0.590934C9.13739 0.361868 8.80067 0.353588 8.68199 0.590934L8.03062 1.91013L6.58712 2.11712C6.33043 2.15576 6.22003 2.47314 6.41048 2.66357L7.45929 3.68471L7.21089 5.12258C7.17225 5.37924 7.43721 5.57795 7.67457 5.45928L8.96903 4.77484L10.2552 5.44824C10.4926 5.56691 10.7603 5.3682 10.7189 5.11154L10.4705 3.67367L11.5193 2.66357C11.707 2.4759 11.5993 2.15852 11.3427 2.11712L9.89916 1.91013H9.8964ZM7.19709 7.48223C6.70856 7.48223 6.31387 7.87689 6.31387 8.36538V13.6643C6.31387 14.1527 6.70856 14.5474 7.19709 14.5474H10.7299C11.2185 14.5474 11.6131 14.1527 11.6131 13.6643V8.36538C11.6131 7.87689 11.2185 7.48223 10.7299 7.48223H7.19709ZM1.01461 9.24853C0.526079 9.24853 0.131393 9.64318 0.131393 10.1317V13.6643C0.131393 14.1527 0.526079 14.5474 1.01461 14.5474H4.54745C5.03598 14.5474 5.43066 14.1527 5.43066 13.6643V10.1317C5.43066 9.64318 5.03598 9.24853 4.54745 9.24853H1.01461ZM12.4964 11.898V13.6643C12.4964 14.1527 12.891 14.5474 13.3796 14.5474H16.9124C17.4009 14.5474 17.7956 14.1527 17.7956 13.6643V11.898C17.7956 11.4095 17.4009 11.0148 16.9124 11.0148H13.3796C12.891 11.0148 12.4964 11.4095 12.4964 11.898Z" fill="#F29825"/>
</svg>
