<svg width="27" height="27" viewBox="0 0 27 27" fill="none" xmlns="http://www.w3.org/2000/svg">
<path d="M13.5 0C10.83 0 8.21987 0.791761 5.99981 2.27516C3.77974 3.75856 2.04942 5.86697 1.02763 8.33377C0.00584934 10.8006 -0.261496 13.515 0.259405 16.1337C0.780305 18.7525 2.06606 21.1579 3.95406 23.0459C5.84207 24.9339 8.24754 26.2197 10.8663 26.7406C13.485 27.2615 16.1994 26.9942 18.6662 25.9724C21.133 24.9506 23.2414 23.2203 24.7248 21.0002C26.2082 18.7801 27 16.17 27 13.5C26.9931 9.92168 25.5686 6.49189 23.0384 3.96164C20.5081 1.43138 17.0783 0.0068616 13.5 0ZM13.5 23.8846C11.7928 23.8833 10.1123 23.4611 8.60723 22.6554C7.10214 21.8497 5.8189 20.6854 4.87108 19.2655C3.92327 17.8456 3.34013 16.2139 3.17328 14.5149C3.00643 12.8159 3.26101 11.102 3.9145 9.52488C4.56799 7.94773 5.60022 6.55602 6.91982 5.47293C8.23943 4.38985 9.8057 3.64879 11.48 3.31537C13.1543 2.98195 14.885 3.06644 16.5188 3.56137C18.1527 4.0563 19.6393 4.9464 20.8471 6.15288C21.0413 6.34756 21.1504 6.61132 21.1504 6.8863C21.1504 7.16128 21.0413 7.42503 20.8471 7.61971C20.7516 7.71744 20.6375 7.7951 20.5116 7.84812C20.3856 7.90114 20.2504 7.92845 20.1137 7.92845C19.9771 7.92845 19.8418 7.90114 19.7158 7.84812C19.5899 7.7951 19.4758 7.71744 19.3803 7.61971C18.0525 6.28788 16.3126 5.44517 14.4444 5.22897C12.5762 5.01278 10.6898 5.43585 9.09293 6.42921C7.49601 7.42257 6.28271 8.92763 5.65086 10.699C5.01901 12.4703 5.00588 14.4035 5.61361 16.1833C6.22133 17.963 7.41407 19.4844 8.99734 20.4994C10.5806 21.5144 12.461 21.963 14.332 21.7722C16.203 21.5814 17.9541 20.7624 19.2999 19.4488C20.6457 18.1351 21.5068 16.4043 21.7428 14.5385H13.5C13.2246 14.5385 12.9604 14.4291 12.7657 14.2343C12.571 14.0396 12.4615 13.7754 12.4615 13.5C12.4615 13.2246 12.571 12.9604 12.7657 12.7657C12.9604 12.5709 13.2246 12.4615 13.5 12.4615H22.8462C23.1216 12.4615 23.3857 12.5709 23.5805 12.7657C23.7752 12.9604 23.8846 13.2246 23.8846 13.5C23.8812 16.2531 22.786 18.8925 20.8392 20.8392C18.8925 22.786 16.2531 23.8812 13.5 23.8846Z" fill="url(#paint0_linear_170_50)"/>
<defs>
<linearGradient id="paint0_linear_170_50" x1="34.3648" y1="-7.27975" x2="-11.8072" y2="-1.05466" gradientUnits="userSpaceOnUse">
<stop stop-color="#02DBF0"/>
<stop offset="0.505208" stop-color="#E41CFC"/>
<stop offset="1" stop-color="#2A00FE"/>
</linearGradient>
</defs>
</svg>
