<svg width="77" height="77" viewBox="0 0 77 77" fill="none" xmlns="http://www.w3.org/2000/svg">
<path d="M59.3224 51.2906C59.332 55.1859 58.5054 59.0375 56.899 62.5835C55.2926 66.1294 52.9439 69.2866 50.0128 71.8401C48.0916 73.5347 49.4075 76.7064 51.9658 76.4506C53.6764 76.283 55.3685 75.9619 57.0221 75.4914C61.4615 74.235 65.4975 71.8378 68.731 68.5367C71.9646 65.2355 74.2838 61.1447 75.4595 56.6686C76.5778 52.6043 76.7447 48.3356 75.9472 44.1959C75.1496 40.0562 73.4093 36.1575 70.8621 32.8044C68.3148 29.4513 65.0297 26.7346 61.2632 24.8664C57.4967 22.9982 53.3508 22.0291 49.1494 22.0348C48.0368 22.034 46.9252 22.098 45.82 22.2266C43.2903 22.5464 42.6499 25.9388 44.8961 27.157C53.5015 31.7995 59.3287 40.8577 59.3287 51.2906H59.3224ZM25.1842 59.3256C21.2944 59.3379 17.4473 58.5128 13.9024 56.9061C10.3574 55.2994 7.19698 52.9484 4.63435 50.0117C2.93939 48.0933 -0.230695 49.4042 0.0273722 51.9621C0.193767 53.6736 0.513665 55.3665 0.983178 57.0203C3.51288 66.0464 10.7451 73.0902 19.803 75.4563C38.0493 80.2267 54.435 66.59 54.435 49.1452C54.435 48.0261 54.3713 46.9071 54.2438 45.82C53.9252 43.2876 50.5321 42.6482 49.3151 44.8927C46.9661 49.2608 43.4824 52.909 39.2337 55.4501C34.9851 57.9913 30.1301 59.3305 25.1842 59.3256ZM17.1427 25.1746C17.1338 21.2789 17.9614 17.427 19.5689 13.881C21.1765 10.335 23.5263 7.17809 26.4586 4.62519C28.3797 2.92739 27.0639 -0.241193 24.5056 0.0145957C22.7861 0.183644 21.0833 0.493759 19.4143 0.94183C14.9788 2.20466 10.9471 4.60414 7.71552 7.90437C4.48397 11.2046 2.16382 15.292 0.983178 19.7647C-0.135078 23.829 -0.30196 28.0977 0.495566 32.2374C1.29309 36.3771 3.03343 40.2758 5.58066 43.6288C8.12789 46.9819 11.413 49.6987 15.1795 51.5669C18.946 53.4351 23.0919 54.4042 27.2933 54.3985C28.4148 54.3985 29.5363 54.3345 30.6227 54.2066C33.1524 53.8869 33.7928 50.4913 31.5467 49.2763C27.1953 46.9461 23.5567 43.4727 21.0202 39.2274C18.4836 34.9822 17.1444 30.1247 17.1458 25.1746H17.1427ZM51.2968 17.1396C55.1865 17.1274 59.0336 17.9524 62.5786 19.5592C66.1236 21.1659 69.284 23.5169 71.8466 26.4536C73.5352 28.372 76.7085 27.061 76.4504 24.5032C76.2842 22.7906 75.9643 21.0966 75.4946 19.4417C72.9617 10.4156 65.7294 3.37502 56.6684 1.00578C38.4539 -3.79666 22.0682 9.84008 22.0682 27.2849C22.0682 28.4039 22.132 29.523 22.2594 30.6133C22.578 33.1424 25.9807 33.7819 27.1946 31.5405C29.5408 27.1805 33.02 23.5396 37.2626 21.0045C41.5052 18.4695 46.3528 17.135 51.2904 17.1428L51.2968 17.1396Z" fill="white" fill-opacity="0.7"/>
</svg>
