<svg width="69" height="76" viewBox="0 0 69 76" fill="none" xmlns="http://www.w3.org/2000/svg">
<path d="M52.214 6.45276e-08C54.379 -0.000265805 56.4634 0.821065 58.0459 2.298C59.6284 3.77494 60.591 5.79734 60.7392 7.95649L60.7581 8.53728V46.9835C60.3025 47.2872 59.8658 47.644 59.4632 48.0464L46.518 60.9833L43.0699 57.5289C41.5537 56.0093 39.5192 55.1185 37.3739 55.0349H46.518C47.2733 55.0349 47.9977 54.7349 48.5318 54.201C49.0659 53.6671 49.366 52.9429 49.366 52.1879C49.366 51.4328 49.0659 50.7086 48.5318 50.1747C47.9977 49.6408 47.2733 49.3408 46.518 49.3408H27.5158C26.7605 49.3408 26.0361 49.6408 25.502 50.1747C24.9679 50.7086 24.6678 51.4328 24.6678 52.1879C24.6678 52.9429 24.9679 53.6671 25.502 54.201C26.0361 54.7349 26.7605 55.0349 27.5158 55.0349H36.6789C35.0207 55.1028 33.4182 55.652 32.0671 56.6153C30.716 57.5787 29.6748 58.9146 29.0707 60.4597C28.4666 62.0049 28.3257 63.6925 28.6653 65.3164C29.0049 66.9403 29.8102 68.4302 30.9829 69.6041L37.2789 75.9169H8.54412C6.37913 75.9171 4.29476 75.0958 2.71227 73.6189C1.12978 72.1419 0.167169 70.1195 0.0189874 67.9604L6.45506e-08 67.3758V8.54107C-0.0002659 6.37685 0.821356 4.29323 2.29882 2.7113C3.77628 1.12937 5.79941 0.167109 7.95932 0.0189807L8.54412 6.45276e-08H52.214ZM18.9869 21.8272C18.9869 20.8204 18.5868 19.8549 17.8747 19.143C17.1625 18.4311 16.1967 18.0312 15.1895 18.0312C14.1824 18.0312 13.2165 18.4311 12.5044 19.143C11.7922 19.8549 11.3922 20.8204 11.3922 21.8272C11.3922 22.834 11.7922 23.7995 12.5044 24.5114C13.2165 25.2233 14.1824 25.6232 15.1895 25.6232C16.1967 25.6232 17.1625 25.2233 17.8747 24.5114C18.5868 23.7995 18.9869 22.834 18.9869 21.8272ZM27.5158 18.9764C26.7605 18.9764 26.0361 19.2763 25.502 19.8102C24.9679 20.3442 24.6678 21.0683 24.6678 21.8234C24.6678 22.5785 24.9679 23.3026 25.502 23.8365C26.0361 24.3705 26.7605 24.6704 27.5158 24.6704H46.518C47.2733 24.6704 47.9977 24.3705 48.5318 23.8365C49.0659 23.3026 49.366 22.5785 49.366 21.8234C49.366 21.0683 49.0659 20.3442 48.5318 19.8102C47.9977 19.2763 47.2733 18.9764 46.518 18.9764H27.5158ZM24.6678 37.0075C24.6678 38.5791 25.9437 39.8546 27.5158 39.8546H46.518C46.892 39.8546 47.2623 39.7809 47.6079 39.6378C47.9534 39.4948 48.2674 39.285 48.5318 39.0207C48.7963 38.7563 49.0061 38.4425 49.1492 38.097C49.2923 37.7516 49.366 37.3814 49.366 37.0075C49.366 36.6337 49.2923 36.2634 49.1492 35.918C49.0061 35.5726 48.7963 35.2587 48.5318 34.9944C48.2674 34.73 47.9534 34.5203 47.6079 34.3772C47.2623 34.2341 46.892 34.1605 46.518 34.1605H27.5158C26.7605 34.1605 26.0361 34.4605 25.502 34.9944C24.9679 35.5283 24.6678 36.2524 24.6678 37.0075ZM18.9869 37.0075C18.9869 36.0008 18.5868 35.0352 17.8747 34.3233C17.1625 33.6114 16.1967 33.2115 15.1895 33.2115C14.1824 33.2115 13.2165 33.6114 12.5044 34.3233C11.7922 35.0352 11.3922 36.0008 11.3922 37.0075C11.3922 38.0143 11.7922 38.9798 12.5044 39.6917C13.2165 40.4036 14.1824 40.8036 15.1895 40.8036C16.1967 40.8036 17.1625 40.4036 17.8747 39.6917C18.5868 38.9798 18.9869 38.0143 18.9869 37.0075ZM18.9869 52.1841C18.9869 51.1773 18.5868 50.2118 17.8747 49.4999C17.1625 48.788 16.1967 48.388 15.1895 48.388C14.1824 48.388 13.2165 48.788 12.5044 49.4999C11.7922 50.2118 11.3922 51.1773 11.3922 52.1841C11.3922 53.1908 11.7922 54.1564 12.5044 54.8683C13.2165 55.5802 14.1824 55.9801 15.1895 55.9801C16.1967 55.9801 17.1625 55.5802 17.8747 54.8683C18.5868 54.1564 18.9869 53.1908 18.9869 52.1841ZM46.518 69.0422L63.4923 52.074C63.7551 51.8022 64.0695 51.5854 64.417 51.4364C64.7646 51.2874 65.1383 51.209 65.5165 51.2059C65.8946 51.2028 66.2696 51.275 66.6196 51.4183C66.9695 51.5616 67.2874 51.7732 67.5547 52.0406C67.822 52.3081 68.0333 52.626 68.1763 52.976C68.3194 53.3259 68.3913 53.7009 68.3878 54.0789C68.3843 54.4569 68.3056 54.8305 68.1562 55.1777C68.0067 55.525 67.7896 55.8391 67.5175 56.1016L48.5306 75.0817C47.9966 75.6149 47.2727 75.9144 46.518 75.9144C45.7632 75.9144 45.0394 75.6149 44.5053 75.0817L35.0119 65.5879C34.5088 65.0482 34.2349 64.3343 34.2479 63.5968C34.261 62.8592 34.5599 62.1555 35.0817 61.6338C35.6035 61.1122 36.3075 60.8134 37.0453 60.8004C37.7831 60.7874 38.4972 61.0612 39.0371 61.5641L46.518 69.0422Z" fill="white" fill-opacity="0.7"/>
</svg>
