<svg width="65" height="77" viewBox="0 0 65 77" fill="none" xmlns="http://www.w3.org/2000/svg">
<path d="M29.1934 25.9497H35.6808V29.1934H29.1934V25.9497ZM29.1934 12.9749H35.6808V16.2186H29.1934V12.9749ZM29.1934 32.4371H35.6808V35.6809H29.1934V32.4371Z" fill="white" fill-opacity="0.7"/>
<path d="M61.6306 38.9245V29.1934C51.7418 29.1913 42.1609 32.6319 34.5326 38.9245H30.3417C22.7134 32.6319 13.1324 29.1913 3.24371 29.1934V38.9245C2.38343 38.9245 1.55838 39.2663 0.950062 39.8746C0.341747 40.4829 0 41.3079 0 42.1682V48.6557C0 49.5159 0.341747 50.341 0.950062 50.9493C1.55838 51.5576 2.38343 51.8994 3.24371 51.8994V64.8742C14.0844 64.8643 24.5224 68.9815 32.4371 76.3894C40.3602 68.9946 50.7928 64.8796 61.6306 64.8742V51.8994C62.4909 51.8994 63.3159 51.5576 63.9242 50.9493C64.5326 50.341 64.8743 49.5159 64.8743 48.6557V42.1682C64.8743 41.3079 64.5326 40.4829 63.9242 39.8746C63.3159 39.2663 62.4909 38.9245 61.6306 38.9245Z" fill="white" fill-opacity="0.7"/>
<path d="M22.706 16.2186C24.4974 16.2186 25.9497 14.7664 25.9497 12.9749C25.9497 11.1835 24.4974 9.7312 22.706 9.7312C20.9145 9.7312 19.4623 11.1835 19.4623 12.9749C19.4623 14.7664 20.9145 16.2186 22.706 16.2186Z" fill="white" fill-opacity="0.7"/>
<path d="M42.1683 16.2186C43.9597 16.2186 45.412 14.7664 45.412 12.9749C45.412 11.1835 43.9597 9.7312 42.1683 9.7312C40.3768 9.7312 38.9246 11.1835 38.9246 12.9749C38.9246 14.7664 40.3768 16.2186 42.1683 16.2186Z" fill="white" fill-opacity="0.7"/>
<path d="M45.412 25.9497H19.4623C16.8822 25.9471 14.4086 24.9211 12.5842 23.0967C10.7598 21.2723 9.73372 18.7986 9.73114 16.2186V9.73114C9.73372 7.15108 10.7598 4.67742 12.5842 2.85303C14.4086 1.02865 16.8822 0.00257621 19.4623 0L45.412 0C47.9921 0.00257621 50.4657 1.02865 52.2901 2.85303C54.1145 4.67742 55.1406 7.15108 55.1432 9.73114V16.2186C55.1406 18.7986 54.1145 21.2723 52.2901 23.0967C50.4657 24.9211 47.9921 25.9471 45.412 25.9497ZM19.4623 6.48743C18.6023 6.48829 17.7777 6.83031 17.1696 7.43844C16.5615 8.04657 16.2194 8.87112 16.2186 9.73114V16.2186C16.2194 17.0786 16.5615 17.9032 17.1696 18.5113C17.7777 19.1194 18.6023 19.4614 19.4623 19.4623H45.412C46.272 19.4614 47.0966 19.1194 47.7047 18.5113C48.3128 17.9032 48.6549 17.0786 48.6557 16.2186V9.73114C48.6549 8.87112 48.3128 8.04657 47.7047 7.43844C47.0966 6.83031 46.272 6.48829 45.412 6.48743H19.4623Z" fill="white" fill-opacity="0.7"/>
</svg>
