<svg width="29" height="29" viewBox="0 0 29 29" fill="none" xmlns="http://www.w3.org/2000/svg">
<circle cx="14.5" cy="14.5" r="14.5" fill="white"/>
<path d="M8.6 22.3636C8.16 22.3636 7.7832 22.2035 7.4696 21.8834C7.15653 21.5626 7 21.1773 7 20.7273V9.27273C7 8.82273 7.15653 8.43736 7.4696 8.11664C7.7832 7.79645 8.16 7.63636 8.6 7.63636H10.4557C11.3379 7.63636 12.084 6.97517 12.8 6.45982C13.2267 6.15327 13.6933 6 14.2 6C14.7333 6 15.2101 6.15327 15.6304 6.45982C16.3391 6.97831 17.0793 7.63636 17.9574 7.63636H19.8C20.24 7.63636 20.6168 7.79645 20.9304 8.11664C21.2435 8.43736 21.4 8.82273 21.4 9.27273V12.5636C21.4 13.0055 21.0418 13.3636 20.6 13.3636C20.1582 13.3636 19.8 13.0055 19.8 12.5636V10.0727C19.8 9.6309 19.4418 9.27273 19 9.27273C18.5582 9.27273 18.2 9.6309 18.2 10.0727V10.5C18.2 11.1778 17.6505 11.7273 16.9727 11.7273H11.4273C10.7495 11.7273 10.2 11.1778 10.2 10.5V10.0727C10.2 9.6309 9.84183 9.27273 9.4 9.27273C8.95817 9.27273 8.6 9.6309 8.6 10.0727V18.7273C8.6 19.8318 9.49543 20.7273 10.6 20.7273H11.7818C12.2337 20.7273 12.6 21.0936 12.6 21.5455C12.6 21.9973 12.2337 22.3636 11.7818 22.3636H8.6ZM22.4526 23.4144C22.1385 23.7357 21.6215 23.7357 21.3074 23.4144L20.4284 22.5154C20.0134 22.091 19.3656 22.0295 18.8 22.2098C18.48 22.3124 18.1467 22.3636 17.8 22.3636C16.8 22.3636 15.9499 22.0058 15.2496 21.2902C14.5499 20.574 14.2 19.7045 14.2 18.6818C14.2 17.6591 14.5499 16.7896 15.2496 16.0735C15.9499 15.3578 16.8 15 17.8 15C18.8 15 19.6501 15.3578 20.3504 16.0735C21.0501 16.7896 21.4 17.6591 21.4 18.6818C21.4 19.0364 21.3499 19.3773 21.2496 19.7045C21.0724 20.2862 21.1339 20.946 21.559 21.3808L22.4526 22.2947C22.7569 22.6059 22.7569 23.1032 22.4526 23.4144ZM17.8 20.7273C18.36 20.7273 18.8333 20.5295 19.22 20.1341C19.6067 19.7386 19.8 19.2545 19.8 18.6818C19.8 18.1091 19.6067 17.625 19.22 17.2295C18.8333 16.8341 18.36 16.6364 17.8 16.6364C17.24 16.6364 16.7667 16.8341 16.38 17.2295C15.9933 17.625 15.8 18.1091 15.8 18.6818C15.8 19.2545 15.9933 19.7386 16.38 20.1341C16.7667 20.5295 17.24 20.7273 17.8 20.7273ZM14.2 9.27273C14.4267 9.27273 14.6168 9.19418 14.7704 9.03709C14.9235 8.88055 15 8.68636 15 8.45455C15 8.22273 14.9235 8.02827 14.7704 7.87118C14.6168 7.71464 14.4267 7.63636 14.2 7.63636C13.9733 7.63636 13.7835 7.71464 13.6304 7.87118C13.4768 8.02827 13.4 8.22273 13.4 8.45455C13.4 8.68636 13.4768 8.88055 13.6304 9.03709C13.7835 9.19418 13.9733 9.27273 14.2 9.27273Z" fill="black"/>
</svg>
