<svg width="40" height="40" viewBox="0 0 40 40" fill="none" xmlns="http://www.w3.org/2000/svg">
<rect width="40" height="40" rx="20" fill="url(#paint0_linear_124_406)" fill-opacity="0.3"/>
<path d="M20 23.6C22.107 23.6 23.8205 21.9854 23.8205 20C23.8205 18.0146 22.107 16.4 20 16.4C17.893 16.4 16.1795 18.0146 16.1795 20C16.1795 21.9854 17.893 23.6 20 23.6ZM20 18.2C21.0354 18.2 21.9103 19.0244 21.9103 20C21.9103 20.9756 21.0354 21.8 20 21.8C18.9646 21.8 18.0897 20.9756 18.0897 20C18.0897 19.0244 18.9646 18.2 20 18.2Z" fill="white"/>
<path d="M11.2558 23.7224L12.2109 25.2794C12.7181 26.1047 13.9388 26.4143 14.8184 25.9364L15.3237 25.661C15.8763 26.0706 16.4855 26.4073 17.1346 26.6618V27.2C17.1346 28.1927 17.9914 29 19.0449 29H20.9551C22.0086 29 22.8654 28.1927 22.8654 27.2V26.6618C23.5143 26.4072 24.1235 26.0709 24.6763 25.6619L25.1816 25.9373C26.0631 26.4143 27.2809 26.1065 27.79 25.2794L28.7442 23.7233C28.9973 23.3099 29.066 22.8188 28.935 22.3578C28.8041 21.8967 28.4844 21.5035 28.046 21.2645L27.5637 21.0017C27.6662 20.338 27.6662 19.6638 27.5637 19.0001L28.046 18.7373C28.4842 18.4981 28.8038 18.1049 28.9347 17.6439C29.0656 17.183 28.9971 16.6919 28.7442 16.2785L27.79 14.7224C27.2828 13.8944 26.0631 13.5839 25.1816 14.0636L24.6763 14.339C24.1237 13.9294 23.5145 13.5927 22.8654 13.3382V12.8C22.8654 11.8073 22.0086 11 20.9551 11H19.0449C17.9914 11 17.1346 11.8073 17.1346 12.8V13.3382C16.4857 13.5928 15.8765 13.9291 15.3237 14.3381L14.8184 14.0627C13.9359 13.5848 12.7172 13.8944 12.21 14.7215L11.2558 16.2776C11.0027 16.691 10.934 17.1821 11.065 17.6431C11.1959 18.1042 11.5156 18.4974 11.954 18.7364L12.4363 18.9992C12.3334 19.6626 12.3334 20.3365 12.4363 20.9999L11.954 21.2627C11.5158 21.5021 11.1961 21.8954 11.0653 22.3565C10.9344 22.8176 11.0029 23.3088 11.2558 23.7224ZM14.4326 21.2402C14.3247 20.8346 14.2699 20.4181 14.2692 20C14.2692 19.5842 14.3246 19.1666 14.4316 18.7598C14.482 18.5702 14.4654 18.3703 14.3844 18.1903C14.3034 18.0104 14.1624 17.8602 13.9827 17.7626L12.9101 17.1776L13.8633 15.6215L14.9569 16.2173C15.1353 16.3145 15.3423 16.3547 15.5469 16.3316C15.7515 16.3086 15.9426 16.2236 16.0916 16.0895C16.7378 15.5104 17.517 15.0795 18.3686 14.8304C18.5643 14.7741 18.7356 14.6601 18.8573 14.5053C18.979 14.3504 19.0448 14.1627 19.0449 13.97V12.8H20.9551V13.97C20.9552 14.1627 21.021 14.3504 21.1427 14.5053C21.2644 14.6601 21.4357 14.7741 21.6314 14.8304C22.4828 15.0799 23.262 15.5107 23.9084 16.0895C24.0575 16.2234 24.2487 16.3081 24.4532 16.3312C24.6577 16.3542 24.8646 16.3143 25.0431 16.2173L26.1357 15.6224L27.0909 17.1785L26.0173 17.7626C25.8377 17.8604 25.6968 18.0105 25.6158 18.1904C25.5348 18.3703 25.5182 18.5702 25.5684 18.7598C25.6754 19.1666 25.7308 19.5842 25.7308 20C25.7308 20.4149 25.6754 20.8325 25.5674 21.2402C25.5173 21.4299 25.5341 21.6298 25.6153 21.8097C25.6964 21.9897 25.8376 22.1398 26.0173 22.2374L27.0899 22.8215L26.1367 24.3776L25.0431 23.7827C24.8648 23.6853 24.6577 23.6451 24.4531 23.6682C24.2485 23.6912 24.0573 23.7763 23.9084 23.9105C23.2622 24.4896 22.483 24.9205 21.6314 25.1696C21.4357 25.2259 21.2644 25.3399 21.1427 25.4947C21.021 25.6496 20.9552 25.8373 20.9551 26.03L20.957 27.2H19.0449V26.03C19.0448 25.8373 18.979 25.6496 18.8573 25.4947C18.7356 25.3399 18.5643 25.2259 18.3686 25.1696C17.5172 24.9201 16.738 24.4893 16.0916 23.9105C15.9429 23.7759 15.7516 23.6906 15.5469 23.6677C15.3421 23.6448 15.135 23.6855 14.9569 23.7836L13.8643 24.3794L12.9091 22.8233L13.9827 22.2374C14.1624 22.1398 14.3036 21.9897 14.3847 21.8097C14.4659 21.6298 14.4827 21.4299 14.4326 21.2402Z" fill="white"/>
<defs>
<linearGradient id="paint0_linear_124_406" x1="50.9108" y1="-10.7848" x2="-17.4921" y2="-1.56246" gradientUnits="userSpaceOnUse">
<stop stop-color="#02DBF0"/>
<stop offset="0.505208" stop-color="#E41CFC"/>
<stop offset="1" stop-color="#2A00FE"/>
</linearGradient>
</defs>
</svg>
