<svg width="41" height="41" viewBox="0 0 41 41" fill="none" xmlns="http://www.w3.org/2000/svg">
<path d="M20.5 1C9.73015 1 1 9.73015 1 20.5C1 31.2699 9.73015 40 20.5 40C31.2699 40 40 31.2699 40 20.5C40 9.73015 31.2699 1 20.5 1Z" stroke="white" stroke-width="1.5" stroke-linecap="round" stroke-linejoin="round"/>
<path d="M5.42844 32.8748C5.42844 32.8748 9.77499 27.325 20.5 27.325C31.225 27.325 35.5735 32.8748 35.5735 32.8748M20.5 20.5C22.0515 20.5 23.5395 19.8837 24.6366 18.7866C25.7336 17.6895 26.35 16.2016 26.35 14.65C26.35 13.0985 25.7336 11.6106 24.6366 10.5135C23.5395 9.41639 22.0515 8.80005 20.5 8.80005C18.9485 8.80005 17.4605 9.41639 16.3634 10.5135C15.2663 11.6106 14.65 13.0985 14.65 14.65C14.65 16.2016 15.2663 17.6895 16.3634 18.7866C17.4605 19.8837 18.9485 20.5 20.5 20.5V20.5Z" stroke="white" stroke-width="1.5" stroke-linecap="round" stroke-linejoin="round"/>
</svg>
