<svg width="52" height="38" viewBox="0 0 52 38" fill="none" xmlns="http://www.w3.org/2000/svg">
<path fill-rule="evenodd" clip-rule="evenodd" d="M11.7001 0.834896C12.2417 1.36964 12.5459 2.09481 12.5459 2.85094C12.5459 3.60707 12.2417 4.33225 11.7001 4.86699C9.82212 6.72056 8.33239 8.92112 7.316 11.343C6.29962 13.7649 5.77649 16.3607 5.77649 18.9822C5.77649 21.6036 6.29962 24.1994 7.316 26.6213C8.33239 29.0432 9.82212 31.2438 11.7001 33.0974C11.976 33.3604 12.1961 33.6751 12.3475 34.023C12.4989 34.3709 12.5786 34.745 12.582 35.1237C12.5853 35.5023 12.5122 35.8778 12.3669 36.2282C12.2217 36.5787 12.0072 36.8971 11.7359 37.1648C11.4647 37.4325 11.1421 37.6443 10.7871 37.7877C10.4321 37.931 10.0517 38.0032 9.66809 37.9999C9.28451 37.9966 8.90544 37.9179 8.55298 37.7685C8.20053 37.619 7.88176 37.4018 7.61527 37.1295C5.20093 34.7463 3.28578 31.9171 1.97915 28.8034C0.672515 25.6897 0 22.3524 0 18.9822C0 15.6119 0.672515 12.2746 1.97915 9.16093C3.28578 6.04721 5.20093 3.21802 7.61527 0.834896C8.15701 0.300312 8.89167 0 9.6577 0C10.4237 0 11.1584 0.300312 11.7001 0.834896ZM40.2999 0.834896C40.8416 0.300312 41.5763 0 42.3423 0C43.1083 0 43.843 0.300312 44.3847 0.834896C46.7991 3.21802 48.7142 6.04721 50.0209 9.16093C51.3275 12.2746 52 15.6119 52 18.9822C52 22.3524 51.3275 25.6897 50.0209 28.8034C48.7142 31.9171 46.7991 34.7463 44.3847 37.1295C44.1182 37.4018 43.7995 37.619 43.447 37.7685C43.0946 37.9179 42.7155 37.9966 42.3319 37.9999C41.9483 38.0032 41.5679 37.931 41.2129 37.7877C40.8579 37.6443 40.5353 37.4325 40.2641 37.1648C39.9928 36.8971 39.7783 36.5787 39.6331 36.2282C39.4878 35.8778 39.4147 35.5023 39.418 35.1237C39.4214 34.745 39.5011 34.3709 39.6525 34.023C39.8039 33.6751 40.024 33.3604 40.2999 33.0974C42.1779 31.2438 43.6676 29.0432 44.684 26.6213C45.7004 24.1994 46.2235 21.6036 46.2235 18.9822C46.2235 16.3607 45.7004 13.7649 44.684 11.343C43.6676 8.92112 42.1779 6.72056 40.2999 4.86699C39.7583 4.33225 39.4541 3.60707 39.4541 2.85094C39.4541 2.09481 39.7583 1.36964 40.2999 0.834896ZM19.8727 8.89909C20.4143 9.43383 20.7185 10.159 20.7185 10.9151C20.7185 11.6713 20.4143 12.3964 19.8727 12.9312C19.0678 13.7256 18.4293 14.6687 17.9937 15.7067C17.558 16.7447 17.3338 17.8572 17.3338 18.9808C17.3338 20.1043 17.558 21.2168 17.9937 22.2548C18.4293 23.2928 19.0678 24.2359 19.8727 25.0303C20.1409 25.2953 20.3537 25.6097 20.4987 25.9558C20.6438 26.3019 20.7184 26.6728 20.7183 27.0474C20.7182 27.4219 20.6433 27.7928 20.498 28.1388C20.3526 28.4847 20.1397 28.7991 19.8713 29.0638C19.6029 29.3286 19.2843 29.5386 18.9336 29.6818C18.583 29.825 18.2073 29.8986 17.8278 29.8985C17.4484 29.8984 17.0727 29.8245 16.7222 29.681C16.3716 29.5375 16.0532 29.3274 15.785 29.0624C13.0771 26.3887 11.5559 22.7628 11.5559 18.9822C11.5559 15.2015 13.0771 11.5757 15.785 8.90194C16.0533 8.63681 16.3719 8.42648 16.7226 8.28298C17.0733 8.13948 17.4492 8.06562 17.8288 8.06562C18.2085 8.06562 18.5844 8.13948 18.9351 8.28298C19.2858 8.42648 19.6044 8.63681 19.8727 8.90194V8.89909ZM32.1273 8.89909C32.3956 8.63396 32.7142 8.42363 33.0649 8.28013C33.4156 8.13663 33.7915 8.06276 34.1712 8.06276C34.5508 8.06276 34.9267 8.13663 35.2774 8.28013C35.6281 8.42363 35.9467 8.63396 36.215 8.89909C37.5567 10.2231 38.621 11.795 39.3471 13.5251C40.0733 15.2552 40.447 17.1095 40.447 18.9822C40.447 20.8548 40.0733 22.7092 39.3471 24.4393C38.621 26.1693 37.5567 27.7413 36.215 29.0653C35.673 29.6003 34.9378 29.9009 34.1712 29.9009C33.4045 29.9009 32.6693 29.6003 32.1273 29.0653C31.5852 28.5302 31.2807 27.8045 31.2807 27.0478C31.2807 26.2911 31.5852 25.5654 32.1273 25.0303C33.752 23.4261 34.6647 21.2506 34.6647 18.9822C34.6647 16.7138 33.752 14.5383 32.1273 12.934C31.8587 12.6692 31.6456 12.3547 31.5002 12.0085C31.3548 11.6624 31.28 11.2913 31.28 10.9166C31.28 10.5418 31.3548 10.1708 31.5002 9.82458C31.6456 9.47841 31.8587 9.16392 32.1273 8.89909ZM26 16.1306C26.7662 16.1306 27.501 16.4311 28.0427 16.9658C28.5845 17.5006 28.8889 18.2259 28.8889 18.9822V19.0107C28.8889 19.767 28.5845 20.4923 28.0427 21.027C27.501 21.5618 26.7662 21.8622 26 21.8622C25.2338 21.8622 24.499 21.5618 23.9573 21.027C23.4155 20.4923 23.1111 19.767 23.1111 19.0107V18.9822C23.1111 18.2259 23.4155 17.5006 23.9573 16.9658C24.499 16.4311 25.2338 16.1306 26 16.1306Z" fill="url(#paint0_linear_204_29)"/>
<defs>
<linearGradient id="paint0_linear_204_29" x1="26" y1="0" x2="26" y2="38" gradientUnits="userSpaceOnUse">
<stop stop-color="#8ED191"/>
<stop offset="1" stop-color="#19991E" stop-opacity="0.94"/>
</linearGradient>
</defs>
</svg>
