<svg width="29" height="29" viewBox="0 0 29 29" fill="none" xmlns="http://www.w3.org/2000/svg">
<circle cx="14.5" cy="14.5" r="14.5" fill="white"/>
<path d="M16.6667 9.66634C17.2866 9.66634 17.5966 9.66634 17.851 9.73449C18.5411 9.91942 19.0802 10.4585 19.2652 11.1487C19.3333 11.403 19.3333 11.713 19.3333 12.333V18.4663C19.3333 19.5864 19.3333 20.1465 19.1153 20.5743C18.9236 20.9506 18.6176 21.2566 18.2413 21.4484C17.8135 21.6663 17.2534 21.6663 16.1333 21.6663H11.8667C10.7466 21.6663 10.1865 21.6663 9.75868 21.4484C9.38235 21.2566 9.07639 20.9506 8.88464 20.5743C8.66666 20.1465 8.66666 19.5864 8.66666 18.4663V12.333C8.66666 11.713 8.66666 11.403 8.7348 11.1487C8.91974 10.4585 9.45883 9.91942 10.149 9.73449C10.4034 9.66634 10.7133 9.66634 11.3333 9.66634M12 16.9997L13.3333 18.333L16.3333 15.333M12.4 10.9997H15.6C15.9734 10.9997 16.16 10.9997 16.3026 10.927C16.4281 10.8631 16.5301 10.7611 16.594 10.6357C16.6667 10.4931 16.6667 10.3064 16.6667 9.93301V9.39967C16.6667 9.02631 16.6667 8.83962 16.594 8.69701C16.5301 8.57157 16.4281 8.46959 16.3026 8.40567C16.16 8.33301 15.9734 8.33301 15.6 8.33301H12.4C12.0266 8.33301 11.8399 8.33301 11.6973 8.40567C11.5719 8.46959 11.4699 8.57157 11.406 8.69701C11.3333 8.83962 11.3333 9.02631 11.3333 9.39967V9.93301C11.3333 10.3064 11.3333 10.4931 11.406 10.6357C11.4699 10.7611 11.5719 10.8631 11.6973 10.927C11.8399 10.9997 12.0266 10.9997 12.4 10.9997Z" stroke="black" stroke-width="2" stroke-linecap="round" stroke-linejoin="round"/>
</svg>
