<svg width="29" height="29" viewBox="0 0 29 29" fill="none" xmlns="http://www.w3.org/2000/svg">
<circle cx="14.5" cy="14.5" r="14.5" fill="white"/>
<path d="M8.66666 12.3311C8.55732 12.3282 8.47793 12.3219 8.40654 12.3077C7.87762 12.2025 7.46416 11.789 7.35895 11.2601C7.33333 11.1313 7.33333 10.9764 7.33333 10.6667C7.33333 10.3569 7.33333 10.202 7.35895 10.0732C7.46416 9.54429 7.87762 9.13083 8.40654 9.02562C8.53534 9 8.69022 9 8.99999 9H19C19.3098 9 19.4647 9 19.5934 9.02562C20.1224 9.13083 20.5358 9.54429 20.641 10.0732C20.6667 10.202 20.6667 10.3569 20.6667 10.6667C20.6667 10.9764 20.6667 11.1313 20.641 11.2601C20.5358 11.789 20.1224 12.2025 19.5934 12.3077C19.5221 12.3219 19.4427 12.3282 19.3333 12.3311M12.6667 15.6667H15.3333M8.66666 12.3333H19.3333V17.8C19.3333 18.9201 19.3333 19.4802 19.1153 19.908C18.9236 20.2843 18.6176 20.5903 18.2413 20.782C17.8135 21 17.2534 21 16.1333 21H11.8667C10.7466 21 10.1865 21 9.75868 20.782C9.38236 20.5903 9.0764 20.2843 8.88465 19.908C8.66666 19.4802 8.66666 18.9201 8.66666 17.8V12.3333Z" stroke="black" stroke-width="2" stroke-linecap="round" stroke-linejoin="round"/>
</svg>
