<svg width="126" height="144" viewBox="0 0 126 144" fill="none" xmlns="http://www.w3.org/2000/svg">
<path d="M51.7974 74.7827H53.5552C54.2388 74.7827 54.8044 74.6647 55.252 74.4287C55.7077 74.1927 56.0454 73.8672 56.2651 73.4521C56.4849 73.0371 56.5947 72.561 56.5947 72.0239C56.5947 71.4624 56.493 70.9823 56.2896 70.5835C56.0942 70.1766 55.7931 69.8633 55.3862 69.6436C54.9875 69.4238 54.4788 69.314 53.8604 69.314C53.3395 69.314 52.8675 69.4198 52.4443 69.6313C52.0293 69.8348 51.6997 70.1278 51.4556 70.5103C51.2114 70.8846 51.0894 71.3322 51.0894 71.853H48.1353C48.1353 70.909 48.3835 70.0708 48.8799 69.3384C49.3763 68.606 50.0518 68.0322 50.9062 67.6172C51.7689 67.194 52.7373 66.9824 53.8115 66.9824C54.959 66.9824 55.96 67.1737 56.8145 67.5562C57.6771 67.9305 58.3485 68.492 58.8286 69.2407C59.3088 69.9894 59.5488 70.9172 59.5488 72.0239C59.5488 72.5285 59.4308 73.0412 59.1948 73.562C58.9588 74.0828 58.6089 74.5589 58.145 74.9902C57.6812 75.4134 57.1034 75.7593 56.4116 76.0278C55.7199 76.2882 54.9183 76.4185 54.0068 76.4185H51.7974V74.7827ZM51.7974 77.0776V75.4663H54.0068C55.0485 75.4663 55.9355 75.5884 56.668 75.8325C57.4085 76.0767 58.0107 76.4144 58.4746 76.8457C58.9385 77.2689 59.2762 77.7531 59.4878 78.2983C59.7075 78.8436 59.8174 79.4214 59.8174 80.0317C59.8174 80.8618 59.6668 81.6024 59.3657 82.2534C59.0728 82.8963 58.6536 83.4416 58.1084 83.8892C57.5632 84.3368 56.9243 84.6745 56.1919 84.9023C55.4676 85.1302 54.6782 85.2441 53.8237 85.2441C53.0588 85.2441 52.3263 85.1383 51.6265 84.9268C50.9266 84.7152 50.3 84.4019 49.7466 83.9868C49.1932 83.5636 48.7537 83.0387 48.4282 82.4121C48.1108 81.7773 47.9521 81.0449 47.9521 80.2148H50.894C50.894 80.7438 51.0161 81.2118 51.2603 81.6187C51.5125 82.0174 51.8625 82.3307 52.3101 82.5586C52.7658 82.7865 53.2866 82.9004 53.8726 82.9004C54.491 82.9004 55.0241 82.7905 55.4717 82.5708C55.9193 82.3511 56.2611 82.0256 56.4971 81.5942C56.7412 81.1629 56.8633 80.6421 56.8633 80.0317C56.8633 79.34 56.729 78.7785 56.4604 78.3472C56.1919 77.9159 55.8094 77.5985 55.313 77.395C54.8166 77.1834 54.2306 77.0776 53.5552 77.0776H51.7974ZM76.6362 74.624V77.5293C76.6362 78.9209 76.4979 80.109 76.2212 81.0938C75.9526 82.0703 75.562 82.8638 75.0493 83.4741C74.5366 84.0845 73.9222 84.5321 73.2061 84.8169C72.498 85.1017 71.7046 85.2441 70.8257 85.2441C70.1258 85.2441 69.4748 85.1546 68.8726 84.9756C68.2785 84.7965 67.7414 84.5158 67.2612 84.1333C66.7811 83.7508 66.3701 83.2585 66.0283 82.6562C65.6947 82.0459 65.4342 81.3175 65.2471 80.4712C65.068 79.6248 64.9785 78.6442 64.9785 77.5293V74.624C64.9785 73.2243 65.1169 72.0443 65.3936 71.084C65.6702 70.1156 66.0649 69.3302 66.5776 68.728C67.0903 68.1177 67.7007 67.6742 68.4087 67.3975C69.1248 67.1208 69.9224 66.9824 70.8013 66.9824C71.5093 66.9824 72.1603 67.0719 72.7544 67.251C73.3566 67.4219 73.8937 67.6945 74.3657 68.0688C74.8459 68.4432 75.2528 68.9315 75.5864 69.5337C75.9282 70.1278 76.1886 70.848 76.3677 71.6943C76.5467 72.5326 76.6362 73.5091 76.6362 74.624ZM73.6943 77.9443V74.1846C73.6943 73.4766 73.6536 72.854 73.5723 72.3169C73.4909 71.7716 73.3688 71.3118 73.2061 70.9375C73.0514 70.555 72.8561 70.2458 72.6201 70.0098C72.3841 69.7656 72.1156 69.5907 71.8145 69.4849C71.5133 69.3709 71.1756 69.314 70.8013 69.314C70.3455 69.314 69.9386 69.4035 69.5806 69.5825C69.2225 69.7534 68.9214 70.0301 68.6772 70.4126C68.4331 70.7951 68.2459 71.2996 68.1157 71.9263C67.9937 72.5448 67.9326 73.2975 67.9326 74.1846V77.9443C67.9326 78.6605 67.9733 79.2912 68.0547 79.8364C68.1361 80.3817 68.2581 80.8496 68.4209 81.2402C68.5837 81.6227 68.779 81.9401 69.0068 82.1924C69.2428 82.4365 69.5114 82.6156 69.8125 82.7295C70.1217 82.8434 70.4595 82.9004 70.8257 82.9004C71.2896 82.9004 71.7005 82.8109 72.0586 82.6318C72.4167 82.4528 72.7178 82.168 72.9619 81.7773C73.2061 81.3786 73.3892 80.8618 73.5112 80.2271C73.6333 79.5923 73.6943 78.8314 73.6943 77.9443Z" fill="black"/>
<path d="M50.647 101.898C50.647 101.703 50.603 101.522 50.5151 101.356C50.4321 101.185 50.2588 101.031 49.9951 100.895C49.7363 100.753 49.3457 100.631 48.8232 100.528C48.3838 100.436 47.9858 100.326 47.6294 100.199C47.2778 100.072 46.9775 99.918 46.7285 99.7373C46.4844 99.5566 46.2964 99.3442 46.1646 99.1001C46.0327 98.856 45.9668 98.5703 45.9668 98.2432C45.9668 97.9307 46.0352 97.6353 46.1719 97.3569C46.3135 97.0786 46.5112 96.832 46.7651 96.6172C47.0239 96.4023 47.334 96.2339 47.6953 96.1118C48.0566 95.9897 48.4595 95.9287 48.9038 95.9287C49.5386 95.9287 50.0806 96.041 50.5298 96.2656C50.979 96.4902 51.3232 96.7905 51.5625 97.1665C51.8018 97.5376 51.9214 97.9502 51.9214 98.4043H50.5664C50.5664 98.1846 50.5005 97.9722 50.3687 97.7671C50.2417 97.5571 50.0537 97.3838 49.8047 97.2471C49.5605 97.1104 49.2603 97.042 48.9038 97.042C48.5278 97.042 48.2227 97.1006 47.9883 97.2178C47.7588 97.3301 47.5903 97.4741 47.4829 97.6499C47.3804 97.8257 47.3291 98.0112 47.3291 98.2065C47.3291 98.353 47.3535 98.4849 47.4023 98.6021C47.4561 98.7144 47.5488 98.8193 47.6807 98.917C47.8125 99.0098 47.998 99.0977 48.2373 99.1807C48.4766 99.2637 48.7817 99.3467 49.1528 99.4297C49.8022 99.5762 50.3369 99.752 50.7568 99.957C51.1768 100.162 51.4893 100.414 51.6943 100.711C51.8994 101.009 52.002 101.371 52.002 101.795C52.002 102.142 51.9287 102.459 51.7822 102.748C51.6406 103.036 51.4331 103.285 51.1597 103.495C50.8911 103.7 50.5688 103.861 50.1929 103.978C49.8218 104.09 49.4043 104.146 48.9404 104.146C48.2422 104.146 47.6514 104.022 47.168 103.773C46.6846 103.524 46.3184 103.202 46.0693 102.806C45.8203 102.411 45.6958 101.993 45.6958 101.554H47.0581C47.0776 101.925 47.1851 102.22 47.3804 102.44C47.5757 102.655 47.8149 102.809 48.0981 102.901C48.3813 102.989 48.6621 103.033 48.9404 103.033C49.3115 103.033 49.6216 102.984 49.8706 102.887C50.1245 102.789 50.3174 102.655 50.4492 102.484C50.5811 102.313 50.647 102.118 50.647 101.898ZM58.5703 104.146C58.0186 104.146 57.5181 104.054 57.0688 103.868C56.6245 103.678 56.2412 103.412 55.9189 103.07C55.6016 102.728 55.3574 102.323 55.1865 101.854C55.0156 101.385 54.9302 100.873 54.9302 100.316V100.008C54.9302 99.3638 55.0254 98.79 55.2158 98.2871C55.4062 97.7793 55.665 97.3496 55.9922 96.998C56.3193 96.6465 56.6904 96.3804 57.1055 96.1997C57.5205 96.019 57.9502 95.9287 58.3945 95.9287C58.9609 95.9287 59.4492 96.0264 59.8594 96.2217C60.2744 96.417 60.6138 96.6904 60.8774 97.042C61.1411 97.3887 61.3364 97.7988 61.4634 98.2725C61.5903 98.7412 61.6538 99.2539 61.6538 99.8105V100.418H55.7358V99.3125H60.2988V99.21C60.2793 98.8584 60.2061 98.5166 60.0791 98.1846C59.957 97.8525 59.7617 97.5791 59.4932 97.3643C59.2246 97.1494 58.8584 97.042 58.3945 97.042C58.0869 97.042 57.8037 97.1079 57.5449 97.2397C57.2861 97.3667 57.064 97.5571 56.8784 97.811C56.6929 98.0649 56.5488 98.375 56.4463 98.7412C56.3438 99.1074 56.2925 99.5298 56.2925 100.008V100.316C56.2925 100.692 56.3438 101.046 56.4463 101.378C56.5537 101.705 56.7075 101.993 56.9077 102.242C57.1128 102.491 57.3594 102.687 57.6475 102.828C57.9404 102.97 58.2725 103.041 58.6436 103.041C59.1221 103.041 59.5273 102.943 59.8594 102.748C60.1914 102.552 60.4819 102.291 60.731 101.964L61.5513 102.616C61.3804 102.875 61.1631 103.121 60.8994 103.355C60.6357 103.59 60.311 103.78 59.9253 103.927C59.5444 104.073 59.0928 104.146 58.5703 104.146ZM67.9072 103.033C68.2295 103.033 68.5273 102.967 68.8008 102.835C69.0742 102.704 69.2988 102.523 69.4746 102.293C69.6504 102.059 69.7505 101.793 69.7749 101.495H71.064C71.0396 101.964 70.8809 102.401 70.5879 102.806C70.2998 103.207 69.9214 103.531 69.4526 103.78C68.9839 104.024 68.4688 104.146 67.9072 104.146C67.3115 104.146 66.7915 104.042 66.3472 103.832C65.9077 103.622 65.5415 103.333 65.2485 102.967C64.9604 102.601 64.7432 102.181 64.5967 101.708C64.4551 101.229 64.3843 100.724 64.3843 100.191V99.8838C64.3843 99.3516 64.4551 98.8486 64.5967 98.375C64.7432 97.8965 64.9604 97.4741 65.2485 97.1079C65.5415 96.7417 65.9077 96.4536 66.3472 96.2437C66.7915 96.0337 67.3115 95.9287 67.9072 95.9287C68.5273 95.9287 69.0693 96.0557 69.5332 96.3096C69.9971 96.5586 70.3608 96.9004 70.6245 97.335C70.8931 97.7646 71.0396 98.2529 71.064 98.7998H69.7749C69.7505 98.4727 69.6577 98.1772 69.4966 97.9136C69.3403 97.6499 69.1255 97.4399 68.8521 97.2837C68.5835 97.1226 68.2686 97.042 67.9072 97.042C67.4922 97.042 67.1431 97.125 66.8599 97.291C66.5815 97.4521 66.3594 97.6719 66.1934 97.9502C66.0322 98.2236 65.915 98.5288 65.8418 98.8657C65.7734 99.1978 65.7393 99.5371 65.7393 99.8838V100.191C65.7393 100.538 65.7734 100.88 65.8418 101.217C65.9102 101.554 66.0249 101.859 66.186 102.132C66.3521 102.406 66.5742 102.625 66.8525 102.792C67.1357 102.953 67.4873 103.033 67.9072 103.033ZM78.7017 101.898C78.7017 101.703 78.6577 101.522 78.5698 101.356C78.4868 101.185 78.3135 101.031 78.0498 100.895C77.791 100.753 77.4004 100.631 76.8779 100.528C76.4385 100.436 76.0405 100.326 75.6841 100.199C75.3325 100.072 75.0322 99.918 74.7832 99.7373C74.5391 99.5566 74.3511 99.3442 74.2192 99.1001C74.0874 98.856 74.0215 98.5703 74.0215 98.2432C74.0215 97.9307 74.0898 97.6353 74.2266 97.3569C74.3682 97.0786 74.5659 96.832 74.8198 96.6172C75.0786 96.4023 75.3887 96.2339 75.75 96.1118C76.1113 95.9897 76.5142 95.9287 76.9585 95.9287C77.5933 95.9287 78.1353 96.041 78.5845 96.2656C79.0337 96.4902 79.3779 96.7905 79.6172 97.1665C79.8564 97.5376 79.9761 97.9502 79.9761 98.4043H78.6211C78.6211 98.1846 78.5552 97.9722 78.4233 97.7671C78.2964 97.5571 78.1084 97.3838 77.8594 97.2471C77.6152 97.1104 77.3149 97.042 76.9585 97.042C76.5825 97.042 76.2773 97.1006 76.043 97.2178C75.8135 97.3301 75.645 97.4741 75.5376 97.6499C75.4351 97.8257 75.3838 98.0112 75.3838 98.2065C75.3838 98.353 75.4082 98.4849 75.457 98.6021C75.5107 98.7144 75.6035 98.8193 75.7354 98.917C75.8672 99.0098 76.0527 99.0977 76.292 99.1807C76.5312 99.2637 76.8364 99.3467 77.2075 99.4297C77.8569 99.5762 78.3916 99.752 78.8115 99.957C79.2314 100.162 79.5439 100.414 79.749 100.711C79.9541 101.009 80.0566 101.371 80.0566 101.795C80.0566 102.142 79.9834 102.459 79.8369 102.748C79.6953 103.036 79.4878 103.285 79.2144 103.495C78.9458 103.7 78.6235 103.861 78.2476 103.978C77.8765 104.09 77.459 104.146 76.9951 104.146C76.2969 104.146 75.7061 104.022 75.2227 103.773C74.7393 103.524 74.373 103.202 74.124 102.806C73.875 102.411 73.7505 101.993 73.7505 101.554H75.1128C75.1323 101.925 75.2397 102.22 75.4351 102.44C75.6304 102.655 75.8696 102.809 76.1528 102.901C76.436 102.989 76.7168 103.033 76.9951 103.033C77.3662 103.033 77.6763 102.984 77.9253 102.887C78.1792 102.789 78.3721 102.655 78.5039 102.484C78.6357 102.313 78.7017 102.118 78.7017 101.898Z" fill="black"/>
<path d="M84 13.7143H42V0H84V13.7143ZM112 82.2857C116.9 82.2857 121.52 83.1772 126 84.6857V82.2857C126 67.7486 120.82 54.3771 112.21 43.8171L122.15 34.08C119 30.5829 115.85 27.4286 112.28 24.4114L102.34 34.2857C91.49 25.6457 77.84 20.5714 63 20.5714C46.2914 20.5714 30.2671 27.0734 18.4523 38.6471C6.63748 50.2208 0 65.9181 0 82.2857C0 98.6534 6.63748 114.351 18.4523 125.924C30.2671 137.498 46.2914 144 63 144C67.13 144 71.12 143.589 74.97 142.834C72.8 138.857 71.26 134.4 70.56 129.669C68.04 130.011 65.59 130.286 63 130.286C35.91 130.286 14 108.823 14 82.2857C14 55.7486 35.91 34.2857 63 34.2857C90.09 34.2857 112 55.7486 112 82.2857Z" fill="#18171C"/>
<path d="M112.035 43.6386L111.872 43.7983L112.016 43.9751C120.592 54.493 125.75 67.8092 125.75 82.2857V84.3389C121.427 82.9148 116.968 82.0654 112.249 82.0365C112.113 55.4715 90.1384 34.0357 63 34.0357C35.7768 34.0357 13.75 55.6057 13.75 82.2857C13.75 108.966 35.7768 130.536 63 130.536C65.5231 130.536 67.9115 130.277 70.3496 129.949C71.052 134.501 72.5268 138.797 74.5882 142.653C70.8568 143.364 66.9941 143.75 63 143.75C46.356 143.75 30.3947 137.273 18.6272 125.746C6.85986 114.219 0.25 98.5854 0.25 82.2857C0.25 65.9861 6.85986 50.3529 18.6272 38.8257C30.3947 27.2983 46.356 20.8214 63 20.8214C77.7818 20.8214 91.3773 25.8755 102.184 34.4813L102.358 34.6199L102.516 34.4631L112.293 24.7505C115.721 27.6625 118.764 30.7064 121.804 34.0693L112.035 43.6386ZM83.75 13.4643H42.25V0.25H83.75V13.4643Z" fill="url(#paint0_linear_75_58)" fill-opacity="0.3" stroke="url(#paint1_linear_75_58)" stroke-width="0.5"/>
<defs>
<linearGradient id="paint0_linear_75_58" x1="160.369" y1="-38.8253" x2="-56.0056" y2="-13.2994" gradientUnits="userSpaceOnUse">
<stop stop-color="#02DBF0"/>
<stop offset="0.505208" stop-color="#E41CFC"/>
<stop offset="1" stop-color="#2A00FE"/>
</linearGradient>
<linearGradient id="paint1_linear_75_58" x1="160.369" y1="-38.8253" x2="-56.0056" y2="-13.2994" gradientUnits="userSpaceOnUse">
<stop stop-color="#02DBF0"/>
<stop offset="0.505208" stop-color="#E41CFC"/>
<stop offset="1" stop-color="#2A00FE"/>
</linearGradient>
</defs>
</svg>
